<svg width="118" height="68" viewBox="0 0 122 68" version="1.1" xmlns="http://www.w3.org/2000/svg" xmlns:xlink="http://www.w3.org/1999/xlink">
<g id="Canvas" fill="none">
<g id="Logo" filter="url(#filter0_i)">
<g id="SzeretetER&#197;&#144;D" filter="url(#filter1_i)">
<path d="M 15.3315 4.648C 15.3315 4.928 15.2848 5.17533 15.1915 5.39C 15.0981 5.59533 14.9721 5.768 14.8135 5.908C 14.6641 6.048 14.4868 6.15533 14.2815 6.23C 14.0855 6.29533 13.8801 6.328 13.6655 6.328L 13.6095 6.202C 13.6748 6.15533 13.7541 6.04333 13.8475 5.866C 13.9501 5.68867 14.0015 5.41333 14.0015 5.04C 14.0015 4.44267 13.8381 3.99467 13.5115 3.696C 13.1848 3.39733 12.6715 3.248 11.9715 3.248C 11.8221 3.248 11.6121 3.262 11.3415 3.29C 11.0801 3.318 10.8141 3.39267 10.5435 3.514C 10.2821 3.63533 10.0535 3.81733 9.85747 4.06C 9.66147 4.29333 9.56347 4.62467 9.56347 5.054C 9.56347 5.446 9.64747 5.77733 9.81548 6.048C 9.99281 6.31867 10.2215 6.55667 10.5015 6.762C 10.7815 6.96733 11.0988 7.14933 11.4535 7.308C 11.8175 7.46667 12.1861 7.62533 12.5595 7.784C 12.9421 7.94267 13.3108 8.11533 13.6655 8.302C 14.0295 8.47933 14.3515 8.694 14.6315 8.946C 14.9115 9.198 15.1355 9.50133 15.3035 9.856C 15.4808 10.2013 15.5695 10.6167 15.5695 11.102C 15.5695 11.6247 15.4715 12.082 15.2755 12.474C 15.0795 12.8567 14.8041 13.1787 14.4495 13.44C 14.1041 13.692 13.6841 13.8787 13.1895 14C 12.7041 14.1307 12.1675 14.196 11.5795 14.196C 11.4768 14.196 11.3275 14.1913 11.1315 14.182C 10.9355 14.1727 10.7395 14.1493 10.5435 14.112C 10.3475 14.084 10.1748 14.0373 10.0255 13.972C 9.88548 13.9067 9.81548 13.8133 9.81548 13.692C 9.54481 13.692 9.30214 13.6453 9.08748 13.552C 8.87281 13.4493 8.68614 13.314 8.52747 13.146C 8.36881 12.978 8.24747 12.782 8.16347 12.558C 8.07947 12.3247 8.03747 12.0727 8.03747 11.802C 8.03747 11.494 8.08881 11.2373 8.19147 11.032C 8.29414 10.8173 8.42481 10.6447 8.58347 10.514C 8.74214 10.374 8.91947 10.2713 9.11547 10.206C 9.31147 10.1407 9.50281 10.0987 9.68947 10.08L 9.74547 10.15C 9.68947 10.2247 9.64281 10.3133 9.60548 10.416C 9.57747 10.5187 9.55414 10.6213 9.53547 10.724C 9.51681 10.8267 9.50281 10.9293 9.49347 11.032C 9.49347 11.1253 9.49347 11.2047 9.49347 11.27C 9.49347 11.7087 9.55881 12.0727 9.68947 12.362C 9.82947 12.642 10.0021 12.866 10.2075 13.034C 10.4128 13.202 10.6368 13.3233 10.8795 13.398C 11.1315 13.4633 11.3695 13.496 11.5935 13.496C 11.7428 13.496 11.9575 13.4773 12.2375 13.44C 12.5268 13.3933 12.8115 13.3 13.0915 13.16C 13.3715 13.02 13.6141 12.8193 13.8195 12.558C 14.0341 12.2873 14.1415 11.928 14.1415 11.48C 14.1415 10.9573 13.9968 10.5373 13.7075 10.22C 13.4275 9.89333 13.0728 9.618 12.6435 9.394C 12.2141 9.16067 11.7475 8.95067 11.2435 8.764C 10.7395 8.568 10.2728 8.33467 9.84347 8.064C 9.41414 7.79333 9.05481 7.45733 8.76547 7.056C 8.48547 6.65467 8.34547 6.132 8.34547 5.488C 8.34547 4.86267 8.47614 4.354 8.73747 3.962C 9.00814 3.57 9.33947 3.27133 9.73147 3.066C 10.1235 2.85133 10.5388 2.70667 10.9775 2.632C 11.4255 2.55733 11.8315 2.52 12.1955 2.52C 13.1195 2.52 13.5815 2.70667 13.5815 3.08C 13.7775 3.08 13.9781 3.10333 14.1835 3.15C 14.3981 3.19667 14.5895 3.28067 14.7575 3.402C 14.9255 3.514 15.0608 3.67267 15.1635 3.878C 15.2755 4.074 15.3315 4.33067 15.3315 4.648ZM 22.1195 8.064C 21.9702 8.064 21.7882 8.26 21.5735 8.652C 21.3588 9.03467 21.0462 9.576 20.6355 10.276L 18.8995 13.3L 20.6355 13.3C 21.1208 13.3 21.4475 13.1927 21.6155 12.978C 21.7835 12.7633 21.8675 12.4367 21.8675 11.998C 22.0822 12.026 22.2595 12.096 22.3995 12.208C 22.5395 12.3107 22.6095 12.4553 22.6095 12.642C 22.6095 12.7727 22.5862 12.894 22.5395 13.006C 22.5022 13.1087 22.4462 13.16 22.3715 13.16C 22.3715 13.3467 22.3342 13.496 22.2595 13.608C 22.1848 13.72 22.0822 13.804 21.9515 13.86C 21.8208 13.916 21.6622 13.9533 21.4755 13.972C 21.2982 13.9907 21.1068 14 20.9015 14L 18.4795 14C 18.3768 14 18.2742 13.9907 18.1715 13.972C 18.0782 13.944 18.0082 13.86 17.9615 13.72C 17.8962 13.86 17.7795 13.972 17.6115 14.056C 17.4528 14.1493 17.2895 14.196 17.1215 14.196C 16.9255 14.196 16.7435 14.1353 16.5755 14.014C 16.4168 13.8927 16.3375 13.7387 16.3375 13.552C 16.4775 13.552 16.6128 13.5427 16.7435 13.524C 16.8835 13.496 17.0282 13.4213 17.1775 13.3C 17.3362 13.1693 17.5182 12.9687 17.7235 12.698C 17.9288 12.4273 18.1715 12.0493 18.4515 11.564L 20.3555 8.288L 18.3255 8.288C 18.0922 8.288 17.8868 8.28333 17.7095 8.274C 17.5322 8.26467 17.3828 8.23667 17.2615 8.19C 17.1402 8.134 17.0468 8.05 16.9815 7.938C 16.9162 7.81667 16.8835 7.64867 16.8835 7.434C 16.9675 7.49933 17.1028 7.54133 17.2895 7.56C 17.4855 7.57867 17.7748 7.588 18.1575 7.588L 22.1195 7.588L 22.1195 8.064ZM 26.8128 13.566C 26.9528 13.566 27.0928 13.552 27.2328 13.524C 27.3728 13.4867 27.5035 13.426 27.6248 13.342C 27.7555 13.2487 27.8721 13.1227 27.9748 12.964C 28.0868 12.796 28.1848 12.5767 28.2688 12.306C 28.4835 12.306 28.6608 12.3573 28.8008 12.46C 28.9408 12.5627 29.0108 12.7213 29.0108 12.936C 29.0108 13.132 28.9455 13.3093 28.8148 13.468C 28.6935 13.6267 28.5255 13.762 28.3108 13.874C 28.1055 13.9767 27.8628 14.056 27.5828 14.112C 27.3121 14.168 27.0275 14.196 26.7288 14.196C 26.2155 14.196 25.7628 14.1167 25.3708 13.958C 24.9788 13.79 24.6521 13.5613 24.3908 13.272C 24.1295 12.9733 23.9288 12.614 23.7888 12.194C 23.6581 11.774 23.5928 11.312 23.5928 10.808C 23.5928 9.76267 23.8681 8.94133 24.4188 8.344C 24.9695 7.74667 25.7535 7.448 26.7708 7.448C 26.8921 7.448 27.0135 7.45267 27.1348 7.462C 27.2561 7.47133 27.3681 7.49467 27.4708 7.532C 27.5735 7.56 27.6575 7.60667 27.7228 7.672C 27.7881 7.728 27.8208 7.80267 27.8208 7.896C 27.9608 7.896 28.1008 7.924 28.2408 7.98C 28.3901 8.036 28.5255 8.12 28.6468 8.232C 28.7775 8.344 28.8801 8.48867 28.9548 8.666C 29.0388 8.834 29.0808 9.03933 29.0808 9.282C 29.0808 9.62733 28.9968 9.912 28.8288 10.136C 28.6608 10.36 28.4461 10.542 28.1848 10.682C 27.9328 10.8127 27.6528 10.906 27.3448 10.962C 27.0461 11.0087 26.7615 11.032 26.4908 11.032C 26.1828 11.032 25.8935 11.0087 25.6228 10.962C 25.3615 10.9153 25.1375 10.8593 24.9508 10.794L 24.9508 10.85C 24.9508 11.242 24.9835 11.606 25.0488 11.942C 25.1141 12.278 25.2168 12.5673 25.3568 12.81C 25.5061 13.0433 25.6975 13.23 25.9308 13.37C 26.1735 13.5007 26.4675 13.566 26.8128 13.566ZM 26.6588 8.106C 26.1548 8.106 25.7675 8.288 25.4968 8.652C 25.2261 9.016 25.0535 9.52 24.9788 10.164C 25.1375 10.2667 25.3521 10.3367 25.6228 10.374C 25.9028 10.402 26.1688 10.416 26.4208 10.416C 26.9248 10.416 27.2748 10.3367 27.4708 10.178C 27.6761 10.0193 27.7788 9.744 27.7788 9.352C 27.7788 8.88533 27.6715 8.56333 27.4568 8.386C 27.2421 8.19933 26.9761 8.106 26.6588 8.106ZM 32.337 12.614C 32.337 12.8007 32.365 12.9547 32.421 13.076C 32.4863 13.1973 32.561 13.2953 32.645 13.37C 32.7383 13.4447 32.841 13.5007 32.953 13.538C 33.0743 13.566 33.191 13.58 33.303 13.58L 33.303 14C 33.191 14 33.065 13.9953 32.925 13.986C 32.7943 13.9673 32.6543 13.9487 32.505 13.93C 32.3557 13.9113 32.211 13.8973 32.071 13.888C 31.9403 13.8693 31.819 13.86 31.707 13.86C 31.595 13.86 31.469 13.8693 31.329 13.888C 31.1983 13.8973 31.0583 13.9113 30.909 13.93C 30.7597 13.9487 30.615 13.9673 30.475 13.986C 30.3443 13.9953 30.223 14 30.111 14L 30.111 13.58C 30.363 13.58 30.587 13.51 30.783 13.37C 30.979 13.23 31.077 12.978 31.077 12.614L 31.077 10.276C 31.077 9.93067 31.0677 9.646 31.049 9.422C 31.0397 9.18867 31.0023 9.01133 30.937 8.89C 30.8717 8.75933 30.7783 8.67067 30.657 8.624C 30.5357 8.568 30.3677 8.54 30.153 8.54L 30.153 8.19C 30.3863 8.19 30.587 8.176 30.755 8.148C 30.9323 8.12 31.091 8.078 31.231 8.022C 31.371 7.966 31.497 7.90067 31.609 7.826C 31.7303 7.75133 31.8563 7.672 31.987 7.588L 32.337 7.588L 32.337 9.044C 32.561 8.49333 32.827 8.092 33.135 7.84C 33.4523 7.57867 33.7743 7.448 34.101 7.448C 34.3063 7.448 34.493 7.48067 34.661 7.546C 34.829 7.61133 34.913 7.72333 34.913 7.882C 35.0997 7.882 35.2443 7.94267 35.347 8.064C 35.459 8.18533 35.515 8.35333 35.515 8.568C 35.515 8.81067 35.431 9.02533 35.263 9.212C 35.095 9.38933 34.815 9.51533 34.423 9.59C 34.4603 9.45 34.479 9.31 34.479 9.17C 34.479 8.834 34.3997 8.58667 34.241 8.428C 34.0917 8.26933 33.9237 8.19 33.737 8.19C 33.5877 8.19 33.429 8.26933 33.261 8.428C 33.1023 8.57733 32.953 8.78733 32.813 9.058C 32.673 9.32867 32.5563 9.646 32.463 10.01C 32.379 10.3647 32.337 10.752 32.337 11.172L 32.337 12.614ZM 39.3499 13.566C 39.4899 13.566 39.6299 13.552 39.7699 13.524C 39.9099 13.4867 40.0406 13.426 40.1619 13.342C 40.2926 13.2487 40.4092 13.1227 40.5119 12.964C 40.6239 12.796 40.7219 12.5767 40.8059 12.306C 41.0206 12.306 41.1979 12.3573 41.3379 12.46C 41.4779 12.5627 41.5479 12.7213 41.5479 12.936C 41.5479 13.132 41.4826 13.3093 41.3519 13.468C 41.2306 13.6267 41.0626 13.762 40.8479 13.874C 40.6426 13.9767 40.3999 14.056 40.1199 14.112C 39.8492 14.168 39.5646 14.196 39.2659 14.196C 38.7526 14.196 38.2999 14.1167 37.9079 13.958C 37.5159 13.79 37.1892 13.5613 36.9279 13.272C 36.6666 12.9733 36.4659 12.614 36.3259 12.194C 36.1952 11.774 36.1299 11.312 36.1299 10.808C 36.1299 9.76267 36.4052 8.94133 36.9559 8.344C 37.5066 7.74667 38.2906 7.448 39.3079 7.448C 39.4292 7.448 39.5506 7.45267 39.6719 7.462C 39.7932 7.47133 39.9052 7.49467 40.0079 7.532C 40.1106 7.56 40.1946 7.60667 40.2599 7.672C 40.3252 7.728 40.3579 7.80267 40.3579 7.896C 40.4979 7.896 40.6379 7.924 40.7779 7.98C 40.9272 8.036 41.0626 8.12 41.1839 8.232C 41.3146 8.344 41.4172 8.48867 41.4919 8.666C 41.5759 8.834 41.6179 9.03933 41.6179 9.282C 41.6179 9.62733 41.5339 9.912 41.3659 10.136C 41.1979 10.36 40.9832 10.542 40.7219 10.682C 40.4699 10.8127 40.1899 10.906 39.8819 10.962C 39.5832 11.0087 39.2986 11.032 39.0279 11.032C 38.7199 11.032 38.4306 11.0087 38.1599 10.962C 37.8986 10.9153 37.6746 10.8593 37.4879 10.794L 37.4879 10.85C 37.4879 11.242 37.5206 11.606 37.5859 11.942C 37.6512 12.278 37.7539 12.5673 37.8939 12.81C 38.0432 13.0433 38.2346 13.23 38.4679 13.37C 38.7106 13.5007 39.0046 13.566 39.3499 13.566ZM 39.1959 8.106C 38.6919 8.106 38.3046 8.288 38.0339 8.652C 37.7632 9.016 37.5906 9.52 37.5159 10.164C 37.6746 10.2667 37.8892 10.3367 38.1599 10.374C 38.4399 10.402 38.7059 10.416 38.9579 10.416C 39.4619 10.416 39.8119 10.3367 40.0079 10.178C 40.2132 10.0193 40.3159 9.744 40.3159 9.352C 40.3159 8.88533 40.2086 8.56333 39.9939 8.386C 39.7792 8.19933 39.5132 8.106 39.1959 8.106ZM 44.8181 12.474C 44.8181 12.9593 44.8414 13.3513 44.8881 13.65C 44.9441 13.9487 45.0141 14.1773 45.0981 14.336C 45.1821 14.504 45.2754 14.616 45.3781 14.672C 45.4901 14.728 45.6021 14.756 45.7141 14.756C 45.8448 14.756 45.9521 14.742 46.0361 14.714C 46.1294 14.686 46.2134 14.6487 46.2881 14.602L 46.4281 14.728C 46.3254 14.9707 46.1854 15.148 46.0081 15.26C 45.8401 15.3813 45.6488 15.442 45.4341 15.442C 45.1634 15.442 44.9348 15.386 44.7481 15.274C 44.5708 15.162 44.4821 15.0127 44.4821 14.826C 44.0994 14.826 43.8474 14.6627 43.7261 14.336C 43.6141 14.0093 43.5581 13.5287 43.5581 12.894L 43.5581 8.246L 42.6341 8.246L 42.6341 7.588L 42.7181 7.588C 42.9701 7.588 43.1848 7.532 43.3621 7.42C 43.5488 7.29867 43.7074 7.14467 43.8381 6.958C 43.9781 6.77133 44.0948 6.56133 44.1881 6.328C 44.2908 6.08533 44.3841 5.84267 44.4681 5.6L 44.8181 5.6L 44.8181 7.588C 45.1541 7.57867 45.4294 7.55533 45.6441 7.518C 45.8681 7.47133 46.0314 7.39667 46.1341 7.294C 46.3488 7.33133 46.4888 7.41067 46.5541 7.532C 46.6194 7.644 46.6521 7.742 46.6521 7.826C 46.6521 7.938 46.6148 8.036 46.5401 8.12C 46.4748 8.19467 46.3814 8.25533 46.2601 8.302C 46.1481 8.34867 46.0174 8.38133 45.8681 8.4C 45.7188 8.41867 45.5694 8.428 45.4201 8.428C 45.2148 8.428 45.0141 8.414 44.8181 8.386L 44.8181 12.474ZM 50.3831 13.566C 50.5231 13.566 50.6631 13.552 50.8031 13.524C 50.9431 13.4867 51.0738 13.426 51.1951 13.342C 51.3258 13.2487 51.4424 13.1227 51.5451 12.964C 51.6571 12.796 51.7551 12.5767 51.8391 12.306C 52.0538 12.306 52.2311 12.3573 52.3711 12.46C 52.5111 12.5627 52.5811 12.7213 52.5811 12.936C 52.5811 13.132 52.5158 13.3093 52.3851 13.468C 52.2638 13.6267 52.0958 13.762 51.8811 13.874C 51.6758 13.9767 51.4331 14.056 51.1531 14.112C 50.8824 14.168 50.5978 14.196 50.2991 14.196C 49.7858 14.196 49.3331 14.1167 48.9411 13.958C 48.5491 13.79 48.2224 13.5613 47.9611 13.272C 47.6998 12.9733 47.4991 12.614 47.3591 12.194C 47.2284 11.774 47.1631 11.312 47.1631 10.808C 47.1631 9.76267 47.4384 8.94133 47.9891 8.344C 48.5398 7.74667 49.3238 7.448 50.3411 7.448C 50.4624 7.448 50.5838 7.45267 50.7051 7.462C 50.8264 7.47133 50.9384 7.49467 51.0411 7.532C 51.1438 7.56 51.2278 7.60667 51.2931 7.672C 51.3584 7.728 51.3911 7.80267 51.3911 7.896C 51.5311 7.896 51.6711 7.924 51.8111 7.98C 51.9604 8.036 52.0958 8.12 52.2171 8.232C 52.3478 8.344 52.4504 8.48867 52.5251 8.666C 52.6091 8.834 52.6511 9.03933 52.6511 9.282C 52.6511 9.62733 52.5671 9.912 52.3991 10.136C 52.2311 10.36 52.0164 10.542 51.7551 10.682C 51.5031 10.8127 51.2231 10.906 50.9151 10.962C 50.6164 11.0087 50.3318 11.032 50.0611 11.032C 49.7531 11.032 49.4638 11.0087 49.1931 10.962C 48.9318 10.9153 48.7078 10.8593 48.5211 10.794L 48.5211 10.85C 48.5211 11.242 48.5538 11.606 48.6191 11.942C 48.6844 12.278 48.7871 12.5673 48.9271 12.81C 49.0764 13.0433 49.2678 13.23 49.5011 13.37C 49.7438 13.5007 50.0378 13.566 50.3831 13.566ZM 50.2291 8.106C 49.7251 8.106 49.3378 8.288 49.0671 8.652C 48.7964 9.016 48.6238 9.52 48.5491 10.164C 48.7078 10.2667 48.9224 10.3367 49.1931 10.374C 49.4731 10.402 49.7391 10.416 49.9911 10.416C 50.4951 10.416 50.8451 10.3367 51.0411 10.178C 51.2464 10.0193 51.3491 9.744 51.3491 9.352C 51.3491 8.88533 51.2418 8.56333 51.0271 8.386C 50.8124 8.19933 50.5464 8.106 50.2291 8.106ZM 55.8513 12.474C 55.8513 12.9593 55.8746 13.3513 55.9213 13.65C 55.9773 13.9487 56.0473 14.1773 56.1313 14.336C 56.2153 14.504 56.3086 14.616 56.4113 14.672C 56.5233 14.728 56.6353 14.756 56.7473 14.756C 56.878 14.756 56.9853 14.742 57.0693 14.714C 57.1626 14.686 57.2466 14.6487 57.3213 14.602L 57.4613 14.728C 57.3586 14.9707 57.2186 15.148 57.0413 15.26C 56.8733 15.3813 56.682 15.442 56.4673 15.442C 56.1966 15.442 55.968 15.386 55.7813 15.274C 55.604 15.162 55.5153 15.0127 55.5153 14.826C 55.1326 14.826 54.8806 14.6627 54.7593 14.336C 54.6473 14.0093 54.5913 13.5287 54.5913 12.894L 54.5913 8.246L 53.6673 8.246L 53.6673 7.588L 53.7513 7.588C 54.0033 7.588 54.218 7.532 54.3953 7.42C 54.582 7.29867 54.7406 7.14467 54.8713 6.958C 55.0113 6.77133 55.128 6.56133 55.2213 6.328C 55.324 6.08533 55.4173 5.84267 55.5013 5.6L 55.8513 5.6L 55.8513 7.588C 56.1873 7.57867 56.4626 7.55533 56.6773 7.518C 56.9013 7.47133 57.0646 7.39667 57.1673 7.294C 57.382 7.33133 57.522 7.41067 57.5873 7.532C 57.6526 7.644 57.6853 7.742 57.6853 7.826C 57.6853 7.938 57.648 8.036 57.5733 8.12C 57.508 8.19467 57.4146 8.25533 57.2933 8.302C 57.1813 8.34867 57.0506 8.38133 56.9013 8.4C 56.752 8.41867 56.6026 8.428 56.4533 8.428C 56.248 8.428 56.0473 8.414 55.8513 8.386L 55.8513 12.474ZM 60.6222 2.814C 60.9956 2.814 61.3922 2.80933 61.8122 2.8C 62.2416 2.78133 62.6429 2.76267 63.0162 2.744C 63.3896 2.72533 63.7069 2.71133 63.9682 2.702C 64.2389 2.68333 64.4069 2.674 64.4722 2.674C 64.6962 2.674 64.8082 2.79533 64.8082 3.038C 64.8082 3.14067 64.7942 3.35533 64.7662 3.682C 64.7382 3.99933 64.7242 4.38667 64.7242 4.844L 64.1642 4.844C 64.1642 4.648 64.1502 4.466 64.1222 4.298C 64.1036 4.12067 64.0569 3.96667 63.9822 3.836C 63.9169 3.70533 63.8189 3.60267 63.6882 3.528C 63.5576 3.444 63.3802 3.402 63.1562 3.402L 60.6222 3.402L 60.6222 7.84C 60.9302 7.88667 61.2382 7.924 61.5462 7.952C 61.8636 7.97067 62.1809 7.98 62.4982 7.98C 62.8249 7.98 63.1516 7.94733 63.4782 7.882C 63.8049 7.80733 64.0849 7.66733 64.3182 7.462C 64.3649 7.50867 64.4069 7.574 64.4442 7.658C 64.4909 7.742 64.5142 7.83533 64.5142 7.938C 64.5142 8.18067 64.3789 8.386 64.1082 8.554C 63.8376 8.71267 63.4129 8.792 62.8342 8.792C 62.4516 8.792 62.0782 8.764 61.7142 8.708C 61.3502 8.652 60.9862 8.57733 60.6222 8.484L 60.6222 12.446C 60.6222 12.8193 60.7016 13.1367 60.8602 13.398C 61.0282 13.65 61.2289 13.8553 61.4622 14.014C 61.6956 14.182 61.9429 14.2987 62.2042 14.364C 62.4656 14.4387 62.6942 14.476 62.8902 14.476C 63.1609 14.476 63.3802 14.4387 63.5482 14.364C 63.7256 14.2987 63.8656 14.21 63.9682 14.098C 64.0709 13.986 64.1409 13.86 64.1782 13.72C 64.2249 13.5707 64.2482 13.4167 64.2482 13.258C 64.2482 13.0153 64.2062 12.8193 64.1222 12.67C 64.0476 12.5113 63.9262 12.3667 63.7582 12.236L 63.7582 12.18C 63.9262 12.152 64.0756 12.138 64.2062 12.138C 64.4116 12.138 64.5749 12.1753 64.6962 12.25C 64.8269 12.3153 64.9249 12.404 64.9902 12.516C 65.0649 12.628 65.1116 12.754 65.1302 12.894C 65.1582 13.034 65.1722 13.174 65.1722 13.314C 65.2842 13.314 65.3729 13.37 65.4382 13.482C 65.5036 13.5847 65.5362 13.7293 65.5362 13.916C 65.5362 14.084 65.4989 14.2427 65.4242 14.392C 65.3496 14.5507 65.2282 14.686 65.0602 14.798C 64.9016 14.9193 64.6869 15.0127 64.4162 15.078C 64.1549 15.1527 63.8329 15.19 63.4502 15.19C 62.8902 15.19 62.3909 15.12 61.9522 14.98C 61.5229 14.84 61.1216 14.686 60.7482 14.518C 60.3749 14.3593 60.0109 14.21 59.6562 14.07C 59.3109 13.93 58.9422 13.86 58.5502 13.86L 58.1162 13.86L 58.1162 13.272C 58.2376 13.272 58.3729 13.2673 58.5222 13.258C 58.6716 13.2393 58.8069 13.1927 58.9282 13.118C 59.0496 13.0433 59.1522 12.9267 59.2362 12.768C 59.3202 12.6 59.3622 12.3667 59.3622 12.068L 59.3622 4.228C 59.3622 4.004 59.3202 3.82667 59.2362 3.696C 59.1522 3.56533 59.0496 3.472 58.9282 3.416C 58.8069 3.35067 58.6716 3.30867 58.5222 3.29C 58.3729 3.27133 58.2376 3.262 58.1162 3.262L 58.1162 2.674C 58.2282 2.674 58.4009 2.68333 58.6342 2.702C 58.8676 2.71133 59.1102 2.72533 59.3622 2.744C 59.6236 2.76267 59.8709 2.78133 60.1042 2.8C 60.3376 2.80933 60.5102 2.814 60.6222 2.814ZM 70.9755 8.988L 70.9755 8.512C 71.4328 8.46533 71.8481 8.39067 72.2215 8.288C 72.6041 8.176 72.9308 8.01733 73.2015 7.812C 73.4721 7.60667 73.6821 7.34067 73.8315 7.014C 73.9808 6.68733 74.0555 6.28133 74.0555 5.796C 74.0555 4.89067 73.7848 4.23733 73.2435 3.836C 72.7115 3.42533 71.9321 3.22 70.9055 3.22C 70.1495 3.22 69.5288 3.318 69.0435 3.514C 68.5581 3.70067 68.1708 3.962 67.8815 4.298C 67.5921 4.634 67.3915 5.026 67.2795 5.474C 67.1675 5.91267 67.1115 6.384 67.1115 6.888C 66.6728 6.888 66.3601 6.804 66.1735 6.636C 65.9868 6.468 65.8935 6.23933 65.8935 5.95C 65.8935 5.67933 65.9588 5.46 66.0895 5.292C 66.2295 5.124 66.3881 5.04 66.5655 5.04C 66.4908 4.96533 66.4441 4.86733 66.4255 4.746C 66.4068 4.61533 66.3975 4.51267 66.3975 4.438C 66.3975 4.12067 66.5188 3.84533 66.7615 3.612C 67.0135 3.36933 67.3448 3.16867 67.7555 3.01C 68.1661 2.842 68.6375 2.72067 69.1695 2.646C 69.7015 2.562 70.2568 2.52 70.8355 2.52C 71.0128 2.52 71.2508 2.52933 71.5495 2.548C 71.8481 2.56667 72.1655 2.60867 72.5015 2.674C 72.8375 2.73933 73.1781 2.842 73.5235 2.982C 73.8688 3.11267 74.1815 3.29933 74.4615 3.542C 74.7415 3.78467 74.9701 4.088 75.1475 4.452C 75.3248 4.816 75.4135 5.25467 75.4135 5.768C 75.4135 6.552 75.1755 7.21 74.6995 7.742C 74.2328 8.274 73.4721 8.652 72.4175 8.876L 75.1335 12.292C 75.4601 12.712 75.7821 13.006 76.0995 13.174C 76.4168 13.3327 76.7668 13.412 77.1495 13.412L 77.1495 14C 76.8788 14.0093 76.6221 14.014 76.3795 14.014C 76.1461 14.0233 75.9688 14.028 75.8475 14.028C 75.6141 14.028 75.4181 14.014 75.2595 13.986C 75.1101 13.9487 74.9701 13.8927 74.8395 13.818C 74.7181 13.734 74.5921 13.622 74.4615 13.482C 74.3401 13.3327 74.1955 13.146 74.0275 12.922L 70.9755 8.988ZM 70.4295 12.446C 70.4295 12.67 70.4715 12.8473 70.5555 12.978C 70.6488 13.1087 70.7561 13.2067 70.8775 13.272C 71.0081 13.328 71.1435 13.3653 71.2835 13.384C 71.4328 13.4027 71.5635 13.412 71.6755 13.412L 71.6755 14C 71.5635 14 71.4235 13.9953 71.2555 13.986C 71.0875 13.9673 70.9148 13.9487 70.7375 13.93C 70.5601 13.9113 70.3875 13.8973 70.2195 13.888C 70.0515 13.8693 69.9115 13.86 69.7995 13.86C 69.6875 13.86 69.5475 13.8693 69.3795 13.888C 69.2115 13.8973 69.0388 13.9113 68.8615 13.93C 68.6841 13.9487 68.5115 13.9673 68.3435 13.986C 68.1755 13.9953 68.0355 14 67.9235 14L 67.9235 13.412C 68.0448 13.412 68.1801 13.4027 68.3295 13.384C 68.4788 13.3653 68.6141 13.328 68.7355 13.272C 68.8568 13.2067 68.9595 13.1087 69.0435 12.978C 69.1275 12.8473 69.1695 12.67 69.1695 12.446L 69.1695 6.902C 69.1695 6.55667 69.1601 6.272 69.1415 6.048C 69.1321 5.81467 69.0948 5.63733 69.0295 5.516C 68.9641 5.38533 68.8708 5.29667 68.7495 5.25C 68.6281 5.194 68.4601 5.166 68.2455 5.166L 68.2455 4.676C 68.4788 4.676 68.6795 4.662 68.8475 4.634C 69.0248 4.606 69.1835 4.564 69.3235 4.508C 69.4635 4.452 69.5895 4.38667 69.7015 4.312C 69.8228 4.23733 69.9488 4.158 70.0795 4.074L 70.4295 4.074L 70.4295 12.446ZM 82.6699 14.196C 82.2593 14.196 81.8393 14.168 81.4099 14.112C 80.9899 14.0653 80.6073 13.9767 80.2619 13.846C 79.9166 13.706 79.6319 13.5193 79.4079 13.286C 79.1933 13.0433 79.0859 12.7353 79.0859 12.362C 78.7686 12.362 78.5119 12.2407 78.3159 11.998C 78.1293 11.7553 77.9799 11.438 77.8679 11.046C 77.7653 10.6447 77.6953 10.1967 77.6579 9.702C 77.6299 9.20733 77.6159 8.708 77.6159 8.204C 77.6159 7.35467 77.7279 6.58 77.9519 5.88C 78.1853 5.18 78.5259 4.58267 78.9739 4.088C 79.4313 3.584 79.9913 3.19667 80.6539 2.926C 81.3166 2.65533 82.0819 2.52 82.9499 2.52C 83.1553 2.52 83.4213 2.534 83.7479 2.562C 84.0746 2.59 84.3919 2.65533 84.6999 2.758C 85.0173 2.85133 85.2879 2.99133 85.5119 3.178C 85.7359 3.36467 85.8479 3.62133 85.8479 3.948C 86.1933 3.948 86.4779 4.08333 86.7019 4.354C 86.9353 4.61533 87.1219 4.95133 87.2619 5.362C 87.4019 5.76333 87.4999 6.202 87.5559 6.678C 87.6119 7.154 87.6399 7.60667 87.6399 8.036C 87.6399 9.03467 87.5093 9.91667 87.2479 10.682C 86.9959 11.4473 86.6459 12.0913 86.1979 12.614C 85.7499 13.1367 85.2226 13.5333 84.6159 13.804C 84.0093 14.0653 83.3606 14.196 82.6699 14.196ZM 82.6419 13.51C 83.2579 13.51 83.7899 13.37 84.2379 13.09C 84.6859 12.8007 85.0499 12.418 85.3299 11.942C 85.6193 11.4567 85.8293 10.8967 85.9599 10.262C 86.0999 9.62733 86.1699 8.96 86.1699 8.26C 86.1699 7.56 86.0999 6.90667 85.9599 6.3C 85.8293 5.69333 85.6193 5.166 85.3299 4.718C 85.0406 4.26067 84.6719 3.90133 84.2239 3.64C 83.7853 3.37867 83.2533 3.248 82.6279 3.248C 82.0119 3.248 81.4799 3.37867 81.0319 3.64C 80.5839 3.892 80.2153 4.242 79.9259 4.69C 79.6366 5.138 79.4219 5.67 79.2819 6.286C 79.1513 6.89267 79.0859 7.546 79.0859 8.246C 79.0859 8.946 79.1513 9.618 79.2819 10.262C 79.4219 10.8967 79.6366 11.4567 79.9259 11.942C 80.2153 12.418 80.5839 12.8007 81.0319 13.09C 81.4799 13.37 82.0166 13.51 82.6419 13.51ZM 82.7259 0.266C 82.7913 0.228667 82.8659 0.21 82.9499 0.21C 83.0526 0.21 83.1506 0.247333 83.2439 0.322C 83.3466 0.387333 83.3979 0.476 83.3979 0.588C 83.3979 0.672 83.3699 0.756 83.3139 0.84C 83.2579 0.914667 83.1879 0.970667 83.1039 1.008C 83.1133 1.02667 83.1179 1.05933 83.1179 1.106C 83.1179 1.26467 83.0759 1.372 82.9919 1.428C 82.9079 1.484 82.7773 1.53067 82.5999 1.568C 82.4319 1.60533 82.2079 1.64733 81.9279 1.694C 81.6573 1.74067 81.3306 1.82467 80.9479 1.946C 80.8919 1.96467 80.8453 1.974 80.8079 1.974C 80.6773 1.974 80.5839 1.932 80.5279 1.848C 80.4719 1.764 80.4439 1.68467 80.4439 1.61C 80.4439 1.47933 80.5093 1.37667 80.6399 1.302C 80.9013 1.162 81.1206 1.02667 81.2979 0.896C 81.4846 0.756 81.6433 0.63 81.7739 0.518C 81.9139 0.406 82.0353 0.317333 82.1379 0.252C 82.2406 0.177333 82.3433 0.14 82.4459 0.14C 82.4926 0.14 82.5393 0.149333 82.5859 0.168C 82.6419 0.186667 82.6886 0.219333 82.7259 0.266ZM 85.7359 0.266C 85.8013 0.228667 85.8759 0.21 85.9599 0.21C 86.0626 0.21 86.1606 0.247333 86.2539 0.322C 86.3566 0.387333 86.4079 0.476 86.4079 0.588C 86.4079 0.672 86.3799 0.756 86.3239 0.84C 86.2679 0.914667 86.1979 0.970667 86.1139 1.008C 86.1233 1.02667 86.1279 1.05933 86.1279 1.106C 86.1279 1.26467 86.0859 1.372 86.0019 1.428C 85.9179 1.484 85.7873 1.53067 85.6099 1.568C 85.4419 1.60533 85.2179 1.64733 84.9379 1.694C 84.6673 1.74067 84.3406 1.82467 83.9579 1.946C 83.9019 1.96467 83.8553 1.974 83.8179 1.974C 83.6873 1.974 83.5939 1.932 83.5379 1.848C 83.4819 1.764 83.4539 1.68467 83.4539 1.61C 83.4539 1.47933 83.5193 1.37667 83.6499 1.302C 83.9113 1.162 84.1306 1.02667 84.3079 0.896C 84.4946 0.756 84.6533 0.63 84.7839 0.518C 84.9239 0.406 85.0453 0.317333 85.1479 0.252C 85.2506 0.177333 85.3533 0.14 85.4559 0.14C 85.5026 0.14 85.5493 0.149333 85.5959 0.168C 85.6519 0.186667 85.6986 0.219333 85.7359 0.266ZM 93.8844 12.446C 93.8844 12.67 93.9264 12.8473 94.0104 12.978C 94.1037 13.1087 94.2111 13.2067 94.3324 13.272C 94.4631 13.328 94.5984 13.3653 94.7384 13.384C 94.8877 13.4027 95.0184 13.412 95.1304 13.412L 95.1304 14C 95.0184 14 94.8784 13.9953 94.7104 13.986C 94.5424 13.9673 94.3697 13.9487 94.1924 13.93C 94.0151 13.9113 93.8424 13.8973 93.6744 13.888C 93.5064 13.8693 93.3664 13.86 93.2544 13.86C 93.1424 13.86 93.0024 13.8693 92.8344 13.888C 92.6664 13.8973 92.4937 13.9113 92.3164 13.93C 92.1391 13.9487 91.9664 13.9673 91.7984 13.986C 91.6304 13.9953 91.4904 14 91.3784 14L 91.3784 13.412C 91.4997 13.412 91.6351 13.4027 91.7844 13.384C 91.9337 13.3653 92.0691 13.328 92.1904 13.272C 92.3117 13.2067 92.4144 13.1087 92.4984 12.978C 92.5824 12.8473 92.6244 12.67 92.6244 12.446L 92.6244 6.902C 92.6244 6.55667 92.6151 6.272 92.5964 6.048C 92.5871 5.81467 92.5497 5.63733 92.4844 5.516C 92.4191 5.38533 92.3257 5.29667 92.2044 5.25C 92.0831 5.194 91.9151 5.166 91.7004 5.166L 91.7004 4.676C 91.9337 4.676 92.1344 4.662 92.3024 4.634C 92.4797 4.606 92.6384 4.564 92.7784 4.508C 92.9184 4.452 93.0444 4.38667 93.1564 4.312C 93.2777 4.23733 93.4037 4.158 93.5344 4.074L 93.8844 4.074L 93.8844 12.446ZM 94.0944 2.52C 95.1397 2.52 96.0264 2.69267 96.7544 3.038C 97.4824 3.38333 98.0704 3.85933 98.5184 4.466C 98.9757 5.06333 99.3024 5.77267 99.4984 6.594C 99.7037 7.406 99.8064 8.28333 99.8064 9.226C 99.8064 10.3927 99.6664 11.4053 99.3864 12.264C 99.1064 13.1227 98.6957 13.8367 98.1544 14.406C 97.6131 14.9753 96.9504 15.3953 96.1664 15.666C 95.3917 15.946 94.5097 16.086 93.5204 16.086C 92.9884 16.086 92.4704 16.044 91.9664 15.96C 91.4717 15.876 91.0331 15.75 90.6504 15.582C 90.2677 15.414 89.9597 15.204 89.7264 14.952C 89.4931 14.7093 89.3764 14.4293 89.3764 14.112C 89.3764 13.888 89.4464 13.7527 89.5864 13.706C 89.5397 13.678 89.4884 13.6173 89.4324 13.524C 89.3764 13.4307 89.3251 13.3187 89.2784 13.188C 89.2317 13.048 89.1897 12.894 89.1524 12.726C 89.1151 12.5487 89.0964 12.3713 89.0964 12.194C 89.0964 12.054 89.1104 11.8953 89.1384 11.718C 89.1757 11.5313 89.2411 11.354 89.3344 11.186C 89.4371 11.0087 89.5771 10.85 89.7544 10.71C 89.9411 10.57 90.1837 10.472 90.4824 10.416L 90.5664 10.486C 90.4637 10.7193 90.3937 10.9713 90.3564 11.242C 90.3284 11.5033 90.3144 11.7553 90.3144 11.998C 90.3144 12.5207 90.3704 12.9687 90.4824 13.342C 90.6037 13.7153 90.7577 14.028 90.9444 14.28C 91.1311 14.532 91.3411 14.7327 91.5744 14.882C 91.8171 15.0313 92.0597 15.1433 92.3024 15.218C 92.5544 15.302 92.7971 15.3533 93.0304 15.372C 93.2731 15.4 93.4831 15.414 93.6604 15.414C 94.5004 15.414 95.2144 15.274 95.8024 14.994C 96.3997 14.7233 96.8851 14.3267 97.2584 13.804C 97.6317 13.272 97.9024 12.6233 98.0704 11.858C 98.2477 11.0927 98.3364 10.22 98.3364 9.24C 98.3364 8.46533 98.2617 7.714 98.1124 6.986C 97.9631 6.258 97.7157 5.614 97.3704 5.054C 97.0251 4.494 96.5677 4.046 95.9984 3.71C 95.4384 3.36467 94.7477 3.192 93.9264 3.192C 93.2264 3.192 92.6524 3.29933 92.2044 3.514C 91.7564 3.71933 91.3971 3.99933 91.1264 4.354C 90.8651 4.69933 90.6831 5.096 90.5804 5.544C 90.4777 5.98267 90.4264 6.44 90.4264 6.916C 89.9877 6.916 89.6751 6.818 89.4884 6.622C 89.3017 6.41667 89.2084 6.16933 89.2084 5.88C 89.2084 5.60933 89.2737 5.38533 89.4044 5.208C 89.5444 5.02133 89.7031 4.928 89.8804 4.928C 89.8057 4.85333 89.7591 4.75533 89.7404 4.634C 89.7217 4.50333 89.7124 4.40067 89.7124 4.326C 89.7124 4.00867 89.8431 3.738 90.1044 3.514C 90.3751 3.28067 90.7204 3.094 91.1404 2.954C 91.5697 2.80467 92.0411 2.69733 92.5544 2.632C 93.0771 2.55733 93.5904 2.52 94.0944 2.52Z" transform="translate(7.93506 17.21)" fill="#F77A7A"/>
</g>
<g id="Vector" filter="url(#filter2_i)">
<path d="M 0 0L 45.8363 19.7725C 48.4169 20.8856 51.3468 20.8615 53.9087 19.706L 97.6 0" stroke-width="3" transform="translate(13.166 37.3838)" stroke="#F77A7A"/>
</g>
<g id="Vector 2" filter="url(#filter3_i)">
<path d="M 6.40198 36.606L 5.63502 36.2339C 2.18844 34.5617 0 31.0676 0 27.2368L 0 20.1234C 0 16.2383 2.25031 12.7048 5.77095 11.0617L 24.8253 2.16917C 27.7432 0.807397 31.1384 0.934032 33.9467 2.50939L 49.2172 11.0754C 52.1932 12.7448 55.815 12.7815 58.8242 11.1727L 75.3373 2.34452C 78.0996 0.867764 81.3942 0.770592 84.2387 2.08198L 103.745 11.0749C 107.289 12.7086 109.558 16.2542 109.558 20.1563L 109.558 27.1363C 109.558 31.019 107.311 34.5507 103.794 36.1951L 102.915 36.606" stroke-width="3" transform="translate(7.24756 1)" stroke="#F77A7A"/>
</g>
</g>
</g>
<defs>
<filter id="filter0_i" x="0" y="0.663086" width="122" height="71.3369" filterUnits="userSpaceOnUse" color-interpolation-filters="sRGB">
<feFlood flood-opacity="0" result="BackgroundImageFix"/>
<feBlend mode="normal" in="SourceGraphic" in2="BackgroundImageFix" result="shape"/>
<feColorMatrix in="SourceAlpha" type="matrix" values="0 0 0 0 0 0 0 0 0 0 0 0 0 0 0 0 0 0 255 0" result="hardAlpha"/>
<feOffset dy="4"/>
<feGaussianBlur stdDeviation="2"/>
<feComposite in2="hardAlpha" operator="arithmetic" k2="-1" k3="1"/>
<feColorMatrix type="matrix" values="0 0 0 0 0 0 0 0 0 0 0 0 0 0 0 0 0 0 0.05 0"/>
<feBlend mode="multiply" in2="shape" result="effect1_innerShadow"/>
</filter>
<filter id="filter1_i" x="15.9727" y="17.3496" width="91.7689" height="19.946" filterUnits="userSpaceOnUse" color-interpolation-filters="sRGB">
<feFlood flood-opacity="0" result="BackgroundImageFix"/>
<feBlend mode="normal" in="SourceGraphic" in2="BackgroundImageFix" result="shape"/>
<feColorMatrix in="SourceAlpha" type="matrix" values="0 0 0 0 0 0 0 0 0 0 0 0 0 0 0 0 0 0 255 0" result="hardAlpha"/>
<feOffset dy="4"/>
<feGaussianBlur stdDeviation="2"/>
<feComposite in2="hardAlpha" operator="arithmetic" k2="-1" k3="1"/>
<feColorMatrix type="matrix" values="0 0 0 0 0 0 0 0 0 0 0 0 0 0 0 0 0 0 0.1 0"/>
<feBlend mode="normal" in2="shape" result="effect1_innerShadow"/>
</filter>
<filter id="filter2_i" x="12.5718" y="36.0068" width="98.8109" height="27.4677" filterUnits="userSpaceOnUse" color-interpolation-filters="sRGB">
<feFlood flood-opacity="0" result="BackgroundImageFix"/>
<feBlend mode="normal" in="SourceGraphic" in2="BackgroundImageFix" result="shape"/>
<feColorMatrix in="SourceAlpha" type="matrix" values="0 0 0 0 0 0 0 0 0 0 0 0 0 0 0 0 0 0 255 0" result="hardAlpha"/>
<feOffset dy="4"/>
<feGaussianBlur stdDeviation="2"/>
<feComposite in2="hardAlpha" operator="arithmetic" k2="-1" k3="1"/>
<feColorMatrix type="matrix" values="0 0 0 0 0 0 0 0 0 0 0 0 0 0 0 0 0 0 0.1 0"/>
<feBlend mode="multiply" in2="shape" result="effect1_innerShadow"/>
</filter>
<filter id="filter3_i" x="5.74756" y="0.663086" width="112.558" height="42.3014" filterUnits="userSpaceOnUse" color-interpolation-filters="sRGB">
<feFlood flood-opacity="0" result="BackgroundImageFix"/>
<feBlend mode="normal" in="SourceGraphic" in2="BackgroundImageFix" result="shape"/>
<feColorMatrix in="SourceAlpha" type="matrix" values="0 0 0 0 0 0 0 0 0 0 0 0 0 0 0 0 0 0 255 0" result="hardAlpha"/>
<feOffset dy="4"/>
<feGaussianBlur stdDeviation="2"/>
<feComposite in2="hardAlpha" operator="arithmetic" k2="-1" k3="1"/>
<feColorMatrix type="matrix" values="0 0 0 0 0 0 0 0 0 0 0 0 0 0 0 0 0 0 0.1 0"/>
<feBlend mode="normal" in2="shape" result="effect1_innerShadow"/>
</filter>

</defs>
</svg>
