<svg width="550" height="350" viewBox="0 0 457 263" version="1.1" xmlns="http://www.w3.org/2000/svg" xmlns:xlink="http://www.w3.org/1999/xlink">
<g id="Canvas" fill="none">
<g id="Logo">
<g id="SzeretetER&#197;&#144;D" filter="url(#filter0_d)">
<path d="M 75.8283 20.248C 75.8283 21.528 75.6149 22.6587 75.1883 23.64C 74.7616 24.5787 74.1856 25.368 73.4603 26.008C 72.7776 26.648 71.9669 27.1387 71.0282 27.48C 70.1322 27.7787 69.1936 27.928 68.2122 27.928L 67.9562 27.352C 68.2549 27.1387 68.6176 26.6267 69.0443 25.816C 69.5136 25.0053 69.7482 23.7467 69.7482 22.04C 69.7482 19.3093 69.0016 17.2613 67.5082 15.896C 66.0149 14.5307 63.6682 13.848 60.4683 13.848C 59.7856 13.848 58.8256 13.912 57.5882 14.04C 56.3936 14.168 55.1776 14.5093 53.9403 15.064C 52.7456 15.6187 51.7002 16.4507 50.8042 17.56C 49.9082 18.6267 49.4602 20.1413 49.4602 22.104C 49.4602 23.896 49.8443 25.4107 50.6123 26.648C 51.4229 27.8853 52.4682 28.9733 53.7483 29.912C 55.0282 30.8507 56.4789 31.6827 58.1003 32.408C 59.7643 33.1333 61.4496 33.8587 63.1562 34.584C 64.9056 35.3093 66.5909 36.0987 68.2122 36.952C 69.8762 37.7627 71.3483 38.744 72.6283 39.896C 73.9082 41.048 74.9322 42.4347 75.7002 44.056C 76.5109 45.6347 76.9162 47.5333 76.9162 49.752C 76.9162 52.1413 76.4682 54.232 75.5723 56.024C 74.6762 57.7733 73.4176 59.2453 71.7962 60.44C 70.2176 61.592 68.2976 62.4453 66.0362 63C 63.8176 63.5973 61.3643 63.896 58.6763 63.896C 58.2069 63.896 57.5243 63.8747 56.6283 63.832C 55.7323 63.7893 54.8363 63.6827 53.9403 63.512C 53.0442 63.384 52.2549 63.1707 51.5723 62.872C 50.9323 62.5733 50.6123 62.1467 50.6123 61.592C 49.3749 61.592 48.2656 61.3787 47.2843 60.952C 46.3029 60.4827 45.4496 59.864 44.7242 59.096C 43.9989 58.328 43.4443 57.432 43.0603 56.408C 42.6763 55.3413 42.4843 54.1893 42.4843 52.952C 42.4843 51.544 42.7189 50.3707 43.1883 49.432C 43.6576 48.4507 44.2549 47.6613 44.9802 47.064C 45.7056 46.424 46.5162 45.9547 47.4122 45.656C 48.3083 45.3573 49.1829 45.1653 50.0363 45.08L 50.2922 45.4C 50.0362 45.7413 49.8229 46.1467 49.6523 46.616C 49.5243 47.0853 49.4176 47.5547 49.3322 48.024C 49.2469 48.4933 49.1829 48.9627 49.1403 49.432C 49.1403 49.8587 49.1403 50.2213 49.1403 50.52C 49.1403 52.5253 49.4389 54.1893 50.0363 55.512C 50.6763 56.792 51.4656 57.816 52.4043 58.584C 53.3429 59.352 54.3669 59.9067 55.4762 60.248C 56.6283 60.5467 57.7163 60.696 58.7402 60.696C 59.4229 60.696 60.4042 60.6107 61.6842 60.44C 63.0069 60.2267 64.3082 59.8 65.5882 59.16C 66.8682 58.52 67.9776 57.6027 68.9163 56.408C 69.8976 55.1707 70.3883 53.528 70.3883 51.48C 70.3883 49.0907 69.7269 47.1707 68.4042 45.72C 67.1242 44.2267 65.5029 42.968 63.5403 41.944C 61.5776 40.8773 59.4443 39.9173 57.1402 39.064C 54.8362 38.168 52.7029 37.1013 50.7402 35.864C 48.7776 34.6267 47.1349 33.0907 45.8123 31.256C 44.5323 29.4213 43.8923 27.032 43.8923 24.088C 43.8923 21.2293 44.4896 18.904 45.6842 17.112C 46.9216 15.32 48.4362 13.9547 50.2282 13.016C 52.0203 12.0347 53.9189 11.3733 55.9242 11.032C 57.9722 10.6907 59.8283 10.52 61.4923 10.52C 65.7163 10.52 67.8283 11.3733 67.8283 13.08C 68.7243 13.08 69.6416 13.1867 70.5802 13.4C 71.5616 13.6133 72.4363 13.9973 73.2043 14.552C 73.9723 15.064 74.5909 15.7893 75.0602 16.728C 75.5723 17.624 75.8283 18.7973 75.8283 20.248ZM 106.859 35.864C 106.177 35.864 105.345 36.76 104.363 38.552C 103.382 40.3013 101.953 42.776 100.075 45.976L 92.1392 59.8L 100.075 59.8C 102.294 59.8 103.787 59.3093 104.555 58.328C 105.323 57.3467 105.707 55.8533 105.707 53.848C 106.689 53.976 107.499 54.296 108.139 54.808C 108.779 55.2773 109.099 55.9387 109.099 56.792C 109.099 57.3893 108.993 57.944 108.779 58.456C 108.609 58.9253 108.353 59.16 108.011 59.16C 108.011 60.0133 107.841 60.696 107.499 61.208C 107.158 61.72 106.689 62.104 106.091 62.36C 105.494 62.616 104.769 62.7867 103.915 62.872C 103.105 62.9573 102.23 63 101.291 63L 90.2192 63C 89.7499 63 89.2806 62.9573 88.8112 62.872C 88.3846 62.744 88.0646 62.36 87.8512 61.72C 87.5526 62.36 87.0193 62.872 86.2512 63.256C 85.5259 63.6827 84.7792 63.896 84.0113 63.896C 83.1152 63.896 82.2832 63.6187 81.5152 63.064C 80.7899 62.5093 80.4273 61.8053 80.4273 60.952C 81.0672 60.952 81.6859 60.9093 82.2833 60.824C 82.9232 60.696 83.5846 60.3547 84.2673 59.8C 84.9926 59.2027 85.8246 58.2853 86.7632 57.048C 87.7019 55.8107 88.8113 54.0827 90.0913 51.864L 98.7952 36.888L 89.5153 36.888C 88.4486 36.888 87.5099 36.8667 86.6993 36.824C 85.8886 36.7813 85.2059 36.6533 84.6512 36.44C 84.0966 36.184 83.6699 35.8 83.3712 35.288C 83.0726 34.7333 82.9232 33.9653 82.9232 32.984C 83.3072 33.2827 83.9259 33.4747 84.7793 33.56C 85.6753 33.6453 86.9979 33.688 88.7472 33.688L 106.859 33.688L 106.859 35.864ZM 128.314 61.016C 128.954 61.016 129.594 60.952 130.234 60.824C 130.874 60.6533 131.472 60.376 132.026 59.992C 132.624 59.5653 133.157 58.9893 133.626 58.264C 134.138 57.496 134.586 56.4933 134.97 55.256C 135.952 55.256 136.762 55.4907 137.402 55.96C 138.042 56.4293 138.362 57.1547 138.362 58.136C 138.362 59.032 138.064 59.8427 137.466 60.568C 136.912 61.2933 136.144 61.912 135.162 62.424C 134.224 62.8933 133.114 63.256 131.834 63.512C 130.597 63.768 129.296 63.896 127.93 63.896C 125.584 63.896 123.514 63.5333 121.722 62.808C 119.93 62.04 118.437 60.9947 117.242 59.672C 116.048 58.3067 115.13 56.664 114.49 54.744C 113.893 52.824 113.594 50.712 113.594 48.408C 113.594 43.6293 114.853 39.8747 117.37 37.144C 119.888 34.4133 123.472 33.048 128.122 33.048C 128.677 33.048 129.232 33.0693 129.786 33.112C 130.341 33.1547 130.853 33.2613 131.322 33.432C 131.792 33.56 132.176 33.7733 132.474 34.072C 132.773 34.328 132.922 34.6693 132.922 35.096C 133.562 35.096 134.202 35.224 134.842 35.48C 135.525 35.736 136.144 36.12 136.698 36.632C 137.296 37.144 137.765 37.8053 138.106 38.616C 138.49 39.384 138.682 40.3227 138.682 41.432C 138.682 43.0107 138.298 44.312 137.53 45.336C 136.762 46.36 135.781 47.192 134.586 47.832C 133.434 48.4293 132.154 48.856 130.746 49.112C 129.381 49.3253 128.08 49.432 126.842 49.432C 125.434 49.432 124.112 49.3253 122.874 49.112C 121.68 48.8987 120.656 48.6427 119.802 48.344L 119.802 48.6C 119.802 50.392 119.952 52.056 120.25 53.592C 120.549 55.128 121.018 56.4507 121.658 57.56C 122.341 58.6267 123.216 59.48 124.282 60.12C 125.392 60.7173 126.736 61.016 128.314 61.016ZM 127.61 36.056C 125.306 36.056 123.536 36.888 122.298 38.552C 121.061 40.216 120.272 42.52 119.93 45.464C 120.656 45.9333 121.637 46.2533 122.874 46.424C 124.154 46.552 125.37 46.616 126.522 46.616C 128.826 46.616 130.426 46.2533 131.322 45.528C 132.261 44.8027 132.73 43.544 132.73 41.752C 132.73 39.6187 132.24 38.1467 131.258 37.336C 130.277 36.4827 129.061 36.056 127.61 36.056ZM 153.568 56.664C 153.568 57.5173 153.696 58.2213 153.952 58.776C 154.25 59.3307 154.592 59.7787 154.976 60.12C 155.402 60.4613 155.872 60.7173 156.384 60.888C 156.938 61.016 157.472 61.08 157.984 61.08L 157.984 63C 157.472 63 156.896 62.9787 156.256 62.936C 155.658 62.8507 155.018 62.7653 154.336 62.68C 153.653 62.5947 152.992 62.5307 152.352 62.488C 151.754 62.4027 151.2 62.36 150.688 62.36C 150.176 62.36 149.6 62.4027 148.96 62.488C 148.362 62.5307 147.722 62.5947 147.04 62.68C 146.357 62.7653 145.696 62.8507 145.056 62.936C 144.458 62.9787 143.904 63 143.392 63L 143.392 61.08C 144.544 61.08 145.568 60.76 146.464 60.12C 147.36 59.48 147.808 58.328 147.808 56.664L 147.808 45.976C 147.808 44.3973 147.765 43.096 147.68 42.072C 147.637 41.0053 147.466 40.1947 147.168 39.64C 146.869 39.0427 146.442 38.6373 145.888 38.424C 145.333 38.168 144.565 38.04 143.584 38.04L 143.584 36.44C 144.65 36.44 145.568 36.376 146.336 36.248C 147.146 36.12 147.872 35.928 148.512 35.672C 149.152 35.416 149.728 35.1173 150.24 34.776C 150.794 34.4347 151.37 34.072 151.968 33.688L 153.568 33.688L 153.568 40.344C 154.592 37.8267 155.808 35.992 157.216 34.84C 158.666 33.6453 160.138 33.048 161.632 33.048C 162.57 33.048 163.424 33.1973 164.192 33.496C 164.96 33.7947 165.344 34.3067 165.344 35.032C 166.197 35.032 166.858 35.3093 167.328 35.864C 167.84 36.4187 168.096 37.1867 168.096 38.168C 168.096 39.2773 167.712 40.2587 166.944 41.112C 166.176 41.9227 164.896 42.4987 163.104 42.84C 163.274 42.2 163.36 41.56 163.36 40.92C 163.36 39.384 162.997 38.2533 162.272 37.528C 161.589 36.8027 160.821 36.44 159.968 36.44C 159.285 36.44 158.56 36.8027 157.792 37.528C 157.066 38.2107 156.384 39.1707 155.744 40.408C 155.104 41.6453 154.57 43.096 154.144 44.76C 153.76 46.3813 153.568 48.152 153.568 50.072L 153.568 56.664ZM 185.627 61.016C 186.267 61.016 186.907 60.952 187.547 60.824C 188.187 60.6533 188.784 60.376 189.339 59.992C 189.936 59.5653 190.469 58.9893 190.939 58.264C 191.451 57.496 191.899 56.4933 192.283 55.256C 193.264 55.256 194.075 55.4907 194.715 55.96C 195.355 56.4293 195.675 57.1547 195.675 58.136C 195.675 59.032 195.376 59.8427 194.779 60.568C 194.224 61.2933 193.456 61.912 192.475 62.424C 191.536 62.8933 190.427 63.256 189.147 63.512C 187.909 63.768 186.608 63.896 185.243 63.896C 182.896 63.896 180.827 63.5333 179.035 62.808C 177.243 62.04 175.749 60.9947 174.555 59.672C 173.36 58.3067 172.443 56.664 171.803 54.744C 171.205 52.824 170.907 50.712 170.907 48.408C 170.907 43.6293 172.165 39.8747 174.683 37.144C 177.2 34.4133 180.784 33.048 185.435 33.048C 185.989 33.048 186.544 33.0693 187.099 33.112C 187.653 33.1547 188.165 33.2613 188.635 33.432C 189.104 33.56 189.488 33.7733 189.787 34.072C 190.085 34.328 190.235 34.6693 190.235 35.096C 190.875 35.096 191.515 35.224 192.155 35.48C 192.837 35.736 193.456 36.12 194.011 36.632C 194.608 37.144 195.077 37.8053 195.419 38.616C 195.803 39.384 195.995 40.3227 195.995 41.432C 195.995 43.0107 195.611 44.312 194.843 45.336C 194.075 46.36 193.093 47.192 191.899 47.832C 190.747 48.4293 189.467 48.856 188.059 49.112C 186.693 49.3253 185.392 49.432 184.155 49.432C 182.747 49.432 181.424 49.3253 180.187 49.112C 178.992 48.8987 177.968 48.6427 177.115 48.344L 177.115 48.6C 177.115 50.392 177.264 52.056 177.563 53.592C 177.861 55.128 178.331 56.4507 178.971 57.56C 179.653 58.6267 180.528 59.48 181.595 60.12C 182.704 60.7173 184.048 61.016 185.627 61.016ZM 184.923 36.056C 182.619 36.056 180.848 36.888 179.611 38.552C 178.373 40.216 177.584 42.52 177.243 45.464C 177.968 45.9333 178.949 46.2533 180.187 46.424C 181.467 46.552 182.683 46.616 183.835 46.616C 186.139 46.616 187.739 46.2533 188.635 45.528C 189.573 44.8027 190.043 43.544 190.043 41.752C 190.043 39.6187 189.552 38.1467 188.571 37.336C 187.589 36.4827 186.373 36.056 184.923 36.056ZM 210.624 56.024C 210.624 58.2427 210.731 60.0347 210.944 61.4C 211.2 62.7653 211.52 63.8107 211.904 64.536C 212.288 65.304 212.715 65.816 213.184 66.072C 213.696 66.328 214.208 66.456 214.72 66.456C 215.318 66.456 215.808 66.392 216.192 66.264C 216.619 66.136 217.003 65.9653 217.344 65.752L 217.984 66.328C 217.515 67.4373 216.875 68.248 216.064 68.76C 215.296 69.3147 214.422 69.592 213.44 69.592C 212.203 69.592 211.158 69.336 210.304 68.824C 209.494 68.312 209.088 67.6293 209.088 66.776C 207.339 66.776 206.187 66.0293 205.632 64.536C 205.12 63.0427 204.864 60.8453 204.864 57.944L 204.864 36.696L 200.64 36.696L 200.64 33.688L 201.024 33.688C 202.176 33.688 203.158 33.432 203.968 32.92C 204.822 32.3653 205.547 31.6613 206.144 30.808C 206.784 29.9547 207.318 28.9947 207.744 27.928C 208.214 26.8187 208.64 25.7093 209.024 24.6L 210.624 24.6L 210.624 33.688C 212.16 33.6453 213.419 33.5387 214.4 33.368C 215.424 33.1547 216.171 32.8133 216.64 32.344C 217.622 32.5147 218.262 32.8773 218.56 33.432C 218.859 33.944 219.008 34.392 219.008 34.776C 219.008 35.288 218.838 35.736 218.496 36.12C 218.198 36.4613 217.771 36.7387 217.216 36.952C 216.704 37.1653 216.107 37.3147 215.424 37.4C 214.742 37.4853 214.059 37.528 213.376 37.528C 212.438 37.528 211.52 37.464 210.624 37.336L 210.624 56.024ZM 236.064 61.016C 236.704 61.016 237.344 60.952 237.984 60.824C 238.624 60.6533 239.222 60.376 239.776 59.992C 240.374 59.5653 240.907 58.9893 241.376 58.264C 241.888 57.496 242.336 56.4933 242.72 55.256C 243.702 55.256 244.512 55.4907 245.152 55.96C 245.792 56.4293 246.112 57.1547 246.112 58.136C 246.112 59.032 245.814 59.8427 245.216 60.568C 244.662 61.2933 243.894 61.912 242.912 62.424C 241.974 62.8933 240.864 63.256 239.584 63.512C 238.347 63.768 237.046 63.896 235.68 63.896C 233.334 63.896 231.264 63.5333 229.472 62.808C 227.68 62.04 226.187 60.9947 224.992 59.672C 223.798 58.3067 222.88 56.664 222.24 54.744C 221.643 52.824 221.344 50.712 221.344 48.408C 221.344 43.6293 222.603 39.8747 225.12 37.144C 227.638 34.4133 231.222 33.048 235.872 33.048C 236.427 33.048 236.982 33.0693 237.536 33.112C 238.091 33.1547 238.603 33.2613 239.072 33.432C 239.542 33.56 239.926 33.7733 240.224 34.072C 240.523 34.328 240.672 34.6693 240.672 35.096C 241.312 35.096 241.952 35.224 242.592 35.48C 243.275 35.736 243.894 36.12 244.448 36.632C 245.046 37.144 245.515 37.8053 245.856 38.616C 246.24 39.384 246.432 40.3227 246.432 41.432C 246.432 43.0107 246.048 44.312 245.28 45.336C 244.512 46.36 243.531 47.192 242.336 47.832C 241.184 48.4293 239.904 48.856 238.496 49.112C 237.131 49.3253 235.83 49.432 234.592 49.432C 233.184 49.432 231.862 49.3253 230.624 49.112C 229.43 48.8987 228.406 48.6427 227.552 48.344L 227.552 48.6C 227.552 50.392 227.702 52.056 228 53.592C 228.299 55.128 228.768 56.4507 229.408 57.56C 230.091 58.6267 230.966 59.48 232.032 60.12C 233.142 60.7173 234.486 61.016 236.064 61.016ZM 235.36 36.056C 233.056 36.056 231.286 36.888 230.048 38.552C 228.811 40.216 228.022 42.52 227.68 45.464C 228.406 45.9333 229.387 46.2533 230.624 46.424C 231.904 46.552 233.12 46.616 234.272 46.616C 236.576 46.616 238.176 46.2533 239.072 45.528C 240.011 44.8027 240.48 43.544 240.48 41.752C 240.48 39.6187 239.99 38.1467 239.008 37.336C 238.027 36.4827 236.811 36.056 235.36 36.056ZM 261.062 56.024C 261.062 58.2427 261.168 60.0347 261.382 61.4C 261.638 62.7653 261.958 63.8107 262.342 64.536C 262.726 65.304 263.152 65.816 263.622 66.072C 264.134 66.328 264.646 66.456 265.158 66.456C 265.755 66.456 266.246 66.392 266.63 66.264C 267.056 66.136 267.44 65.9653 267.782 65.752L 268.422 66.328C 267.952 67.4373 267.312 68.248 266.502 68.76C 265.734 69.3147 264.859 69.592 263.878 69.592C 262.64 69.592 261.595 69.336 260.742 68.824C 259.931 68.312 259.526 67.6293 259.526 66.776C 257.776 66.776 256.624 66.0293 256.07 64.536C 255.558 63.0427 255.302 60.8453 255.302 57.944L 255.302 36.696L 251.078 36.696L 251.078 33.688L 251.462 33.688C 252.614 33.688 253.595 33.432 254.406 32.92C 255.259 32.3653 255.984 31.6613 256.582 30.808C 257.222 29.9547 257.755 28.9947 258.182 27.928C 258.651 26.8187 259.078 25.7093 259.462 24.6L 261.062 24.6L 261.062 33.688C 262.598 33.6453 263.856 33.5387 264.838 33.368C 265.862 33.1547 266.608 32.8133 267.078 32.344C 268.059 32.5147 268.699 32.8773 268.998 33.432C 269.296 33.944 269.446 34.392 269.446 34.776C 269.446 35.288 269.275 35.736 268.934 36.12C 268.635 36.4613 268.208 36.7387 267.654 36.952C 267.142 37.1653 266.544 37.3147 265.862 37.4C 265.179 37.4853 264.496 37.528 263.814 37.528C 262.875 37.528 261.958 37.464 261.062 37.336L 261.062 56.024ZM 282.872 11.864C 284.578 11.864 286.392 11.8427 288.312 11.8C 290.274 11.7147 292.109 11.6293 293.816 11.544C 295.522 11.4587 296.973 11.3947 298.168 11.352C 299.405 11.2667 300.173 11.224 300.472 11.224C 301.496 11.224 302.008 11.7787 302.008 12.888C 302.008 13.3573 301.944 14.3387 301.816 15.832C 301.688 17.2827 301.624 19.0533 301.624 21.144L 299.064 21.144C 299.064 20.248 299 19.416 298.872 18.648C 298.786 17.8373 298.573 17.1333 298.232 16.536C 297.933 15.9387 297.485 15.4693 296.888 15.128C 296.29 14.744 295.48 14.552 294.456 14.552L 282.872 14.552L 282.872 34.84C 284.28 35.0533 285.688 35.224 287.096 35.352C 288.546 35.4373 289.997 35.48 291.448 35.48C 292.941 35.48 294.434 35.3307 295.928 35.032C 297.421 34.6907 298.701 34.0507 299.768 33.112C 299.981 33.3253 300.173 33.624 300.344 34.008C 300.557 34.392 300.664 34.8187 300.664 35.288C 300.664 36.3973 300.045 37.336 298.808 38.104C 297.57 38.8293 295.629 39.192 292.984 39.192C 291.234 39.192 289.528 39.064 287.864 38.808C 286.2 38.552 284.536 38.2107 282.872 37.784L 282.872 55.896C 282.872 57.6027 283.234 59.0533 283.96 60.248C 284.728 61.4 285.645 62.3387 286.712 63.064C 287.778 63.832 288.909 64.3653 290.104 64.664C 291.298 65.0053 292.344 65.176 293.24 65.176C 294.477 65.176 295.48 65.0053 296.248 64.664C 297.058 64.3653 297.698 63.96 298.168 63.448C 298.637 62.936 298.957 62.36 299.128 61.72C 299.341 61.0373 299.448 60.3333 299.448 59.608C 299.448 58.4987 299.256 57.6027 298.872 56.92C 298.53 56.1947 297.976 55.5333 297.208 54.936L 297.208 54.68C 297.976 54.552 298.658 54.488 299.256 54.488C 300.194 54.488 300.941 54.6587 301.496 55C 302.093 55.2987 302.541 55.704 302.84 56.216C 303.181 56.728 303.394 57.304 303.48 57.944C 303.608 58.584 303.672 59.224 303.672 59.864C 304.184 59.864 304.589 60.12 304.888 60.632C 305.186 61.1013 305.336 61.7627 305.336 62.616C 305.336 63.384 305.165 64.1093 304.824 64.792C 304.482 65.5173 303.928 66.136 303.16 66.648C 302.434 67.2027 301.453 67.6293 300.216 67.928C 299.021 68.2693 297.549 68.44 295.8 68.44C 293.24 68.44 290.957 68.12 288.952 67.48C 286.989 66.84 285.154 66.136 283.448 65.368C 281.741 64.6427 280.077 63.96 278.456 63.32C 276.877 62.68 275.192 62.36 273.4 62.36L 271.416 62.36L 271.416 59.672C 271.97 59.672 272.589 59.6507 273.272 59.608C 273.954 59.5227 274.573 59.3093 275.128 58.968C 275.682 58.6267 276.152 58.0933 276.536 57.368C 276.92 56.6 277.112 55.5333 277.112 54.168L 277.112 18.328C 277.112 17.304 276.92 16.4933 276.536 15.896C 276.152 15.2987 275.682 14.872 275.128 14.616C 274.573 14.3173 273.954 14.1253 273.272 14.04C 272.589 13.9547 271.97 13.912 271.416 13.912L 271.416 11.224C 271.928 11.224 272.717 11.2667 273.784 11.352C 274.85 11.3947 275.96 11.4587 277.112 11.544C 278.306 11.6293 279.437 11.7147 280.504 11.8C 281.57 11.8427 282.36 11.864 282.872 11.864ZM 330.201 40.088L 330.201 37.912C 332.291 37.6987 334.19 37.3573 335.897 36.888C 337.646 36.376 339.139 35.6507 340.377 34.712C 341.614 33.7733 342.574 32.5573 343.257 31.064C 343.939 29.5707 344.281 27.7147 344.281 25.496C 344.281 21.3573 343.043 18.3707 340.569 16.536C 338.137 14.6587 334.574 13.72 329.881 13.72C 326.425 13.72 323.587 14.168 321.369 15.064C 319.15 15.9173 317.379 17.112 316.057 18.648C 314.734 20.184 313.817 21.976 313.305 24.024C 312.793 26.0293 312.537 28.184 312.537 30.488C 310.531 30.488 309.102 30.104 308.249 29.336C 307.395 28.568 306.969 27.5227 306.969 26.2C 306.969 24.9627 307.267 23.96 307.865 23.192C 308.505 22.424 309.23 22.04 310.041 22.04C 309.699 21.6987 309.486 21.2507 309.401 20.696C 309.315 20.0987 309.273 19.6293 309.273 19.288C 309.273 17.8373 309.827 16.5787 310.937 15.512C 312.089 14.4027 313.603 13.4853 315.481 12.76C 317.358 11.992 319.513 11.4373 321.945 11.096C 324.377 10.712 326.915 10.52 329.561 10.52C 330.371 10.52 331.459 10.5627 332.825 10.648C 334.19 10.7333 335.641 10.9253 337.177 11.224C 338.713 11.5227 340.27 11.992 341.849 12.632C 343.427 13.2293 344.857 14.0827 346.137 15.192C 347.417 16.3013 348.462 17.688 349.273 19.352C 350.083 21.016 350.489 23.0213 350.489 25.368C 350.489 28.952 349.401 31.96 347.225 34.392C 345.091 36.824 341.614 38.552 336.793 39.576L 349.209 55.192C 350.702 57.112 352.174 58.456 353.625 59.224C 355.075 59.9493 356.675 60.312 358.425 60.312L 358.425 63C 357.187 63.0427 356.014 63.064 354.905 63.064C 353.838 63.1067 353.027 63.128 352.473 63.128C 351.406 63.128 350.51 63.064 349.785 62.936C 349.102 62.7653 348.462 62.5093 347.865 62.168C 347.31 61.784 346.734 61.272 346.137 60.632C 345.582 59.9493 344.921 59.096 344.153 58.072L 330.201 40.088ZM 327.705 55.896C 327.705 56.92 327.897 57.7307 328.281 58.328C 328.707 58.9253 329.198 59.3733 329.753 59.672C 330.35 59.928 330.969 60.0987 331.609 60.184C 332.291 60.2693 332.889 60.312 333.401 60.312L 333.401 63C 332.889 63 332.249 62.9787 331.481 62.936C 330.713 62.8507 329.923 62.7653 329.113 62.68C 328.302 62.5947 327.513 62.5307 326.745 62.488C 325.977 62.4027 325.337 62.36 324.825 62.36C 324.313 62.36 323.673 62.4027 322.905 62.488C 322.137 62.5307 321.347 62.5947 320.537 62.68C 319.726 62.7653 318.937 62.8507 318.169 62.936C 317.401 62.9787 316.761 63 316.249 63L 316.249 60.312C 316.803 60.312 317.422 60.2693 318.105 60.184C 318.787 60.0987 319.406 59.928 319.961 59.672C 320.515 59.3733 320.985 58.9253 321.369 58.328C 321.753 57.7307 321.945 56.92 321.945 55.896L 321.945 30.552C 321.945 28.9733 321.902 27.672 321.817 26.648C 321.774 25.5813 321.603 24.7707 321.305 24.216C 321.006 23.6187 320.579 23.2133 320.025 23C 319.47 22.744 318.702 22.616 317.721 22.616L 317.721 20.376C 318.787 20.376 319.705 20.312 320.473 20.184C 321.283 20.056 322.009 19.864 322.649 19.608C 323.289 19.352 323.865 19.0533 324.377 18.712C 324.931 18.3707 325.507 18.008 326.105 17.624L 327.705 17.624L 327.705 55.896ZM 383.661 63.896C 381.784 63.896 379.864 63.768 377.901 63.512C 375.981 63.2987 374.232 62.8933 372.653 62.296C 371.075 61.656 369.773 60.8027 368.749 59.736C 367.768 58.6267 367.277 57.2187 367.277 55.512C 365.827 55.512 364.653 54.9573 363.757 53.848C 362.904 52.7387 362.221 51.288 361.709 49.496C 361.24 47.6613 360.92 45.6133 360.749 43.352C 360.621 41.0907 360.557 38.808 360.557 36.504C 360.557 32.6213 361.069 29.08 362.093 25.88C 363.16 22.68 364.717 19.9493 366.765 17.688C 368.856 15.384 371.416 13.6133 374.445 12.376C 377.475 11.1387 380.973 10.52 384.941 10.52C 385.88 10.52 387.096 10.584 388.589 10.712C 390.083 10.84 391.533 11.1387 392.941 11.608C 394.392 12.0347 395.629 12.6747 396.653 13.528C 397.677 14.3813 398.189 15.5547 398.189 17.048C 399.768 17.048 401.069 17.6667 402.093 18.904C 403.16 20.0987 404.013 21.6347 404.653 23.512C 405.293 25.3467 405.741 27.352 405.997 29.528C 406.253 31.704 406.381 33.7733 406.381 35.736C 406.381 40.3013 405.784 44.3333 404.589 47.832C 403.437 51.3307 401.837 54.2747 399.789 56.664C 397.741 59.0533 395.331 60.8667 392.557 62.104C 389.784 63.2987 386.819 63.896 383.661 63.896ZM 383.533 60.76C 386.349 60.76 388.781 60.12 390.829 58.84C 392.877 57.5173 394.541 55.768 395.821 53.592C 397.144 51.3733 398.104 48.8133 398.701 45.912C 399.341 43.0107 399.661 39.96 399.661 36.76C 399.661 33.56 399.341 30.5733 398.701 27.8C 398.104 25.0267 397.144 22.616 395.821 20.568C 394.499 18.4773 392.813 16.8347 390.765 15.64C 388.76 14.4453 386.328 13.848 383.469 13.848C 380.653 13.848 378.221 14.4453 376.173 15.64C 374.125 16.792 372.44 18.392 371.117 20.44C 369.795 22.488 368.813 24.92 368.173 27.736C 367.576 30.5093 367.277 33.496 367.277 36.696C 367.277 39.896 367.576 42.968 368.173 45.912C 368.813 48.8133 369.795 51.3733 371.117 53.592C 372.44 55.768 374.125 57.5173 376.173 58.84C 378.221 60.12 380.675 60.76 383.533 60.76ZM 383.917 0.216C 384.216 0.0453326 384.557 -0.0400009 384.941 -0.0400009C 385.411 -0.0400009 385.859 0.130666 386.285 0.472C 386.755 0.770665 386.989 1.176 386.989 1.688C 386.989 2.072 386.861 2.456 386.605 2.84C 386.349 3.18133 386.029 3.43733 385.645 3.608C 385.688 3.69333 385.709 3.84267 385.709 4.056C 385.709 4.78133 385.517 5.272 385.133 5.528C 384.749 5.784 384.152 5.99733 383.341 6.168C 382.573 6.33867 381.549 6.53067 380.269 6.744C 379.032 6.95733 377.539 7.34133 375.789 7.896C 375.533 7.98133 375.32 8.024 375.149 8.024C 374.552 8.024 374.125 7.832 373.869 7.448C 373.613 7.064 373.485 6.70133 373.485 6.36C 373.485 5.76267 373.784 5.29333 374.381 4.952C 375.576 4.312 376.579 3.69333 377.389 3.096C 378.243 2.456 378.968 1.88 379.565 1.368C 380.205 0.855999 380.76 0.450666 381.229 0.152C 381.699 -0.189334 382.168 -0.360001 382.637 -0.360001C 382.851 -0.360001 383.064 -0.317333 383.277 -0.231998C 383.533 -0.146666 383.747 0.00266647 383.917 0.216ZM 397.677 0.216C 397.976 0.0453326 398.317 -0.0400009 398.701 -0.0400009C 399.171 -0.0400009 399.619 0.130666 400.045 0.472C 400.515 0.770665 400.749 1.176 400.749 1.688C 400.749 2.072 400.621 2.456 400.365 2.84C 400.109 3.18133 399.789 3.43733 399.405 3.608C 399.448 3.69333 399.469 3.84267 399.469 4.056C 399.469 4.78133 399.277 5.272 398.893 5.528C 398.509 5.784 397.912 5.99733 397.101 6.168C 396.333 6.33867 395.309 6.53067 394.029 6.744C 392.792 6.95733 391.299 7.34133 389.549 7.896C 389.293 7.98133 389.08 8.024 388.909 8.024C 388.312 8.024 387.885 7.832 387.629 7.448C 387.373 7.064 387.245 6.70133 387.245 6.36C 387.245 5.76267 387.544 5.29333 388.141 4.952C 389.336 4.312 390.339 3.69333 391.149 3.096C 392.003 2.456 392.728 1.88 393.325 1.368C 393.965 0.855999 394.52 0.450666 394.989 0.152C 395.459 -0.189334 395.928 -0.360001 396.397 -0.360001C 396.611 -0.360001 396.824 -0.317333 397.037 -0.231998C 397.293 -0.146666 397.507 0.00266647 397.677 0.216ZM 434.927 55.896C 434.927 56.92 435.119 57.7307 435.503 58.328C 435.93 58.9253 436.421 59.3733 436.975 59.672C 437.573 59.928 438.191 60.0987 438.831 60.184C 439.514 60.2693 440.111 60.312 440.623 60.312L 440.623 63C 440.111 63 439.471 62.9787 438.703 62.936C 437.935 62.8507 437.146 62.7653 436.335 62.68C 435.525 62.5947 434.735 62.5307 433.967 62.488C 433.199 62.4027 432.559 62.36 432.047 62.36C 431.535 62.36 430.895 62.4027 430.127 62.488C 429.359 62.5307 428.57 62.5947 427.759 62.68C 426.949 62.7653 426.159 62.8507 425.391 62.936C 424.623 62.9787 423.983 63 423.471 63L 423.471 60.312C 424.026 60.312 424.645 60.2693 425.327 60.184C 426.01 60.0987 426.629 59.928 427.183 59.672C 427.738 59.3733 428.207 58.9253 428.591 58.328C 428.975 57.7307 429.167 56.92 429.167 55.896L 429.167 30.552C 429.167 28.9733 429.125 27.672 429.039 26.648C 428.997 25.5813 428.826 24.7707 428.527 24.216C 428.229 23.6187 427.802 23.2133 427.247 23C 426.693 22.744 425.925 22.616 424.943 22.616L 424.943 20.376C 426.01 20.376 426.927 20.312 427.695 20.184C 428.506 20.056 429.231 19.864 429.871 19.608C 430.511 19.352 431.087 19.0533 431.599 18.712C 432.154 18.3707 432.73 18.008 433.327 17.624L 434.927 17.624L 434.927 55.896ZM 435.887 10.52C 440.666 10.52 444.719 11.3093 448.047 12.888C 451.375 14.4667 454.063 16.6427 456.111 19.416C 458.202 22.1467 459.695 25.3893 460.591 29.144C 461.53 32.856 461.999 36.8667 461.999 41.176C 461.999 46.5093 461.359 51.1387 460.079 55.064C 458.799 58.9893 456.922 62.2533 454.447 64.856C 451.973 67.4587 448.943 69.3787 445.359 70.616C 441.818 71.896 437.786 72.536 433.263 72.536C 430.831 72.536 428.463 72.344 426.159 71.96C 423.898 71.576 421.893 71 420.143 70.232C 418.394 69.464 416.986 68.504 415.919 67.352C 414.853 66.2427 414.319 64.9627 414.319 63.512C 414.319 62.488 414.639 61.8693 415.279 61.656C 415.066 61.528 414.831 61.2507 414.575 60.824C 414.319 60.3973 414.085 59.8853 413.871 59.288C 413.658 58.648 413.466 57.944 413.295 57.176C 413.125 56.3653 413.039 55.5547 413.039 54.744C 413.039 54.104 413.103 53.3787 413.231 52.568C 413.402 51.7147 413.701 50.904 414.127 50.136C 414.597 49.3253 415.237 48.6 416.047 47.96C 416.901 47.32 418.01 46.872 419.375 46.616L 419.759 46.936C 419.29 48.0027 418.97 49.1547 418.799 50.392C 418.671 51.5867 418.607 52.7387 418.607 53.848C 418.607 56.2373 418.863 58.2853 419.375 59.992C 419.93 61.6987 420.634 63.128 421.487 64.28C 422.341 65.432 423.301 66.3493 424.367 67.032C 425.477 67.7147 426.586 68.2267 427.695 68.568C 428.847 68.952 429.957 69.1867 431.023 69.272C 432.133 69.4 433.093 69.464 433.903 69.464C 437.743 69.464 441.007 68.824 443.695 67.544C 446.426 66.3067 448.645 64.4933 450.351 62.104C 452.058 59.672 453.295 56.7067 454.063 53.208C 454.874 49.7093 455.279 45.72 455.279 41.24C 455.279 37.6987 454.938 34.264 454.255 30.936C 453.573 27.608 452.442 24.664 450.863 22.104C 449.285 19.544 447.194 17.496 444.591 15.96C 442.031 14.3813 438.874 13.592 435.119 13.592C 431.919 13.592 429.295 14.0827 427.247 15.064C 425.199 16.0027 423.557 17.2827 422.319 18.904C 421.125 20.4827 420.293 22.296 419.823 24.344C 419.354 26.3493 419.119 28.44 419.119 30.616C 417.114 30.616 415.685 30.168 414.831 29.272C 413.978 28.3333 413.551 27.2027 413.551 25.88C 413.551 24.6427 413.85 23.6187 414.447 22.808C 415.087 21.9547 415.813 21.528 416.623 21.528C 416.282 21.1867 416.069 20.7387 415.983 20.184C 415.898 19.5867 415.855 19.1173 415.855 18.776C 415.855 17.3253 416.453 16.088 417.647 15.064C 418.885 13.9973 420.463 13.144 422.383 12.504C 424.346 11.8213 426.501 11.3307 428.847 11.032C 431.237 10.6907 433.583 10.52 435.887 10.52Z" transform="translate(-28 87)" fill="#F77A7A"/>
</g>
<g id="Line">
<line y1="-0.5" x2="16" y2="-0.5" transform="matrix(0 1 -1 0 347 103)" stroke="#F77A7A"/>
</g>
<g id="Line_2">
<line y1="-0.5" x2="13" y2="-0.5" transform="matrix(0 1 -1 0 343 106)" stroke="#F77A7A"/>
</g>
<g id="Line_3">
<line y1="-0.5" x2="18" y2="-0.5" transform="matrix(0 1 -1 0 351 101)" stroke="#F77A7A"/>
</g>
<g id="Line_4">
<line y1="-0.5" x2="19" y2="-0.5" transform="matrix(0 1 -1 0 355 100)" stroke="#F77A7A"/>
</g>
<g id="Line_5">
<line y1="-0.5" x2="19" y2="-0.5" transform="matrix(0 1 -1 0 359 100)" stroke="#F77A7A"/>
</g>
<g id="Line_6">
<line y1="-0.5" x2="19" y2="-0.5" transform="matrix(0 1 -1 0 363 100)" stroke="#F77A7A"/>
</g>
<g id="Line_7">
<line y1="-0.5" x2="18" y2="-0.5" transform="matrix(0 1 -1 0 367 101)" stroke="#F77A7A"/>
</g>
<g id="Line 2">
<line y1="-0.5" x2="31" y2="-0.5" transform="translate(340 117)" stroke="#F77A7A"/>
</g>
<g id="Rectangle 2">
<rect width="4.5" height="6.17659" transform="translate(55 114.823)" fill="#F77A7A"/>
</g>
<g id="Rectangle 2.1">
<rect width="5.25" height="6.17659" transform="translate(64.75 114.823)" fill="#F77A7A"/>
</g>
<g id="Rectangle 2.2">
<rect width="4.5" height="6.17659" transform="translate(74.5 114.823)" fill="#F77A7A"/>
</g>
<g id="Line 3">
<line y1="-0.5" x2="8.82353" y2="-0.5" transform="matrix(0 1 -1 0 67 106)" stroke="#F77A7A"/>
</g>
<g id="Rectangle 3">
<rect width="2.25" height="1.76474" transform="translate(67.75 106)" fill="#F77A7A"/>
</g>
<g id="Rectangle 3.1">
<rect width="2.25" height="1.76474" transform="translate(68.5 106.883)" fill="#F77A7A"/>
</g>
<g id="Vector">
<path d="M 0 0L 202.152 94.9575C 204.9 96.2486 208.086 96.2209 210.812 94.8822L 404 0" stroke-width="3" transform="translate(26.5 165)" stroke="#F77A7A"/>
</g>
<g id="Vector 2">
<path d="M 26.5 165L 5.32879 153.815C 2.0509 152.083 0 148.68 0 144.973L 0 68.1353C 0 64.3711 2.11379 60.9258 5.4695 59.2204L 117.022 2.52982C 120.116 0.957532 123.804 1.10174 126.765 2.91081L 218.41 58.891C 221.546 60.8063 225.479 60.8479 228.654 58.9994L 325.321 2.72396C 328.24 1.02453 331.82 0.913646 334.839 2.42914L 447.987 59.2321C 451.366 60.9289 453.5 64.3873 453.5 68.1692L 453.5 144.87C 453.5 148.631 451.389 152.075 448.037 153.781L 426 165" stroke-width="3" transform="translate(2 1)" stroke="#F77A7A"/>
</g>
</g>
</g>
<defs>
<filter id="filter0_d" x="10.4844" y="86.6396" width="427.515" height="80.896" filterUnits="userSpaceOnUse" color-interpolation-filters="sRGB">
<feFlood flood-opacity="0" result="BackgroundImageFix"/>
<feColorMatrix in="SourceAlpha" type="matrix" values="0 0 0 0 0 0 0 0 0 0 0 0 0 0 0 0 0 0 255 0"/>
<feOffset dy="4"/>
<feGaussianBlur stdDeviation="2"/>
<feColorMatrix type="matrix" values="0 0 0 0 0 0 0 0 0 0 0 0 0 0 0 0 0 0 0.15 0"/>
<feBlend mode="normal" in2="BackgroundImageFix" result="effect1_dropShadow"/>
<feBlend mode="normal" in="SourceGraphic" in2="effect1_dropShadow" result="shape"/>
</filter>

</defs>
</svg>
